<!DOCTYPE svg PUBLIC "-//W3C//DTD SVG 20010904//EN" "http://www.w3.org/TR/2001/REC-SVG-20010904/DTD/svg10.dtd">
<svg version="1.0" xmlns="http://www.w3.org/2000/svg" width="312px" height="512px" viewBox="0 0 3120 5120" preserveAspectRatio="xMidYMid meet">
<g id="layer101" fill="#ffd300" stroke="none">
 <path d="M480 5104 c-213 -56 -400 -241 -454 -449 -49 -193 -12 -398 101 -550 16 -22 353 -379 747 -794 l717 -754 -34 -36 c-19 -20 -328 -344 -688 -721 -360 -377 -678 -711 -706 -743 -108 -119 -172 -306 -158 -462 14 -170 70 -290 190 -411 127 -128 262 -184 445 -184 182 0 325 58 455 184 107 103 1854 1934 1892 1983 52 65 103 183 119 275 35 191 -22 395 -150 537 -106 117 -1781 1880 -1856 1952 -88 86 -198 149 -301 174 -80 19 -246 18 -319 -1z"/>
 </g>

</svg>