<!DOCTYPE svg PUBLIC "-//W3C//DTD SVG 20010904//EN" "http://www.w3.org/TR/2001/REC-SVG-20010904/DTD/svg10.dtd">
<svg version="1.0" xmlns="http://www.w3.org/2000/svg" width="312px" height="512px" viewBox="0 0 3120 5120" preserveAspectRatio="xMidYMid meet">
<g id="layer101" fill="#ffd300" stroke="none">
 <path d="M2317 5104 c-96 -23 -210 -89 -292 -168 -107 -103 -1854 -1934 -1892 -1983 -52 -65 -103 -183 -119 -275 -35 -191 22 -395 150 -537 106 -117 1781 -1880 1856 -1952 134 -131 275 -189 460 -189 183 0 318 56 445 184 120 121 176 241 190 411 12 135 -38 307 -122 420 -16 22 -353 379 -747 794 l-717 754 34 36 c19 20 328 344 688 721 360 377 678 711 706 743 108 119 172 306 158 462 -14 170 -70 290 -190 411 -87 88 -177 140 -290 169 -74 19 -239 18 -318 -1z"/>
 </g>

</svg>