<!DOCTYPE svg PUBLIC "-//W3C//DTD SVG 20010904//EN" "http://www.w3.org/TR/2001/REC-SVG-20010904/DTD/svg10.dtd">
<svg version="1.0" xmlns="http://www.w3.org/2000/svg" width="51px" height="47px" viewBox="0 0 510 470" preserveAspectRatio="xMidYMid meet">
<g id="layer101" fill="#292929" stroke="none">
 <path d="M60 448 c-11 -12 -20 -25 -20 -30 0 -4 -9 -8 -20 -8 -19 0 -20 -7 -20 -185 l0 -185 55 0 c48 0 55 -2 55 -20 0 -18 7 -20 80 -20 73 0 80 2 80 20 0 15 7 20 25 20 18 0 25 5 25 20 0 17 7 20 53 20 l52 0 43 69 c42 69 42 69 42 165 0 85 -2 96 -17 96 -10 0 -26 14 -35 30 -15 26 -23 30 -58 30 -35 0 -43 -4 -58 -30 -16 -29 -20 -30 -87 -30 -67 0 -71 1 -87 30 -14 24 -24 30 -52 30 -23 0 -42 -7 -56 -22z m5 -88 c10 -11 30 -20 45 -20 15 0 35 9 45 20 15 17 31 20 100 20 69 0 85 -3 100 -20 10 -11 30 -20 45 -20 15 0 35 9 45 20 34 37 45 26 45 -45 l0 -65 -85 0 -85 0 0 40 0 40 -150 0 -150 0 0 25 c0 30 20 33 45 5z m-25 -130 l0 -70 120 0 120 0 0 70 c0 39 3 70 8 70 4 0 7 -34 7 -75 l0 -75 -137 0 -138 0 0 75 c0 43 4 75 10 75 6 0 10 -30 10 -70z m210 45 c0 -25 0 -25 -94 -25 l-93 0 5 25 c4 24 6 25 93 25 88 0 89 0 89 -25z m0 -70 c0 -12 -17 -15 -93 -15 -77 0 -94 3 -94 15 0 12 17 15 94 15 76 0 93 -3 93 -15z m105 -40 c0 -46 -3 -55 -17 -55 -15 0 -18 9 -18 55 0 46 3 55 18 55 14 0 17 -9 17 -55z m91 3 c-47 -74 -66 -75 -66 -4 l0 56 50 0 50 0 -34 -52z m-206 -138 c0 -5 -22 -10 -50 -10 -27 0 -50 5 -50 10 0 6 23 10 50 10 28 0 50 -4 50 -10z"/>
 <path d="M350 285 c0 -10 10 -15 30 -15 20 0 30 5 30 15 0 10 -10 15 -30 15 -20 0 -30 -5 -30 -15z"/>
 </g>
<g id="layer102" fill="#ffd203" stroke="none">
 <path d="M77 432 c-22 -24 -21 -35 1 -55 25 -22 45 -21 67 3 15 17 16 24 7 45 -14 30 -51 33 -75 7z m51 -25 c2 -10 -3 -17 -12 -17 -18 0 -29 16 -21 31 9 14 29 6 33 -14z"/>
 <path d="M358 425 c-9 -21 -8 -28 7 -45 10 -11 26 -20 35 -20 9 0 25 9 35 20 27 30 7 70 -35 70 -23 0 -33 -6 -42 -25z m57 -16 c0 -7 -8 -15 -17 -17 -18 -3 -25 18 -11 32 10 10 28 1 28 -15z"/>
 <path d="M20 95 c0 -32 2 -35 30 -35 28 0 30 3 30 35 0 32 -2 35 -30 35 -28 0 -30 -3 -30 -35z"/>
 <path d="M100 95 c0 -31 3 -35 25 -35 22 0 25 4 25 35 0 31 -3 35 -25 35 -22 0 -25 -4 -25 -35z"/>
 <path d="M170 95 c0 -31 3 -35 25 -35 22 0 25 4 25 35 0 31 -3 35 -25 35 -22 0 -25 -4 -25 -35z"/>
 <path d="M240 95 c0 -32 2 -35 30 -35 28 0 30 3 30 35 0 32 -2 35 -30 35 -28 0 -30 -3 -30 -35z"/>
 </g>

</svg>