<!DOCTYPE svg PUBLIC "-//W3C//DTD SVG 20010904//EN" "http://www.w3.org/TR/2001/REC-SVG-20010904/DTD/svg10.dtd">
<svg version="1.0" xmlns="http://www.w3.org/2000/svg" width="38px" height="40px" viewBox="0 0 380 400" preserveAspectRatio="xMidYMid meet">
<g id="layer101" fill="#292929" stroke="none">
 <path d="M2 358 l3 -43 115 0 115 0 0 40 0 40 -118 3 -118 3 3 -43z m160 -5 c-23 -2 -61 -2 -85 0 -23 2 -4 4 43 4 47 0 66 -2 42 -4z"/>
 <path d="M250 350 c0 -5 5 -10 10 -10 6 0 5 -8 -2 -20 -10 -16 -9 -23 10 -43 12 -13 22 -28 22 -34 0 -6 5 -13 12 -15 9 -3 9 -12 -1 -35 -7 -18 -10 -42 -7 -55 4 -13 -12 13 -35 57 -27 53 -50 85 -67 93 -31 14 -132 16 -132 2 0 -5 -11 -10 -25 -10 -25 0 -25 -1 -25 -80 l0 -80 64 0 65 0 3 48 3 47 75 -108 c56 -82 79 -107 94 -105 17 3 19 12 21 105 0 56 4 105 8 109 4 4 7 18 7 31 0 13 6 26 14 29 10 4 14 19 13 45 l-1 39 -63 0 c-35 0 -63 -4 -63 -10z m94 -65 c-25 -19 -39 -19 -54 0 -11 13 -7 15 31 15 40 0 41 -1 23 -15z m-244 -105 c0 -15 -7 -20 -25 -20 -18 0 -25 5 -25 20 0 15 7 20 25 20 18 0 25 -5 25 -20z"/>
 </g>

</svg>