<!DOCTYPE svg PUBLIC "-//W3C//DTD SVG 20010904//EN" "http://www.w3.org/TR/2001/REC-SVG-20010904/DTD/svg10.dtd">
<svg version="1.0" xmlns="http://www.w3.org/2000/svg" width="50px" height="50px" viewBox="0 0 500 500" preserveAspectRatio="xMidYMid meet">
<g id="layer101" fill="#292929" stroke="none">
 <path d="M65 490 c-3 -5 -5 -24 -4 -42 2 -18 -3 -43 -9 -55 -7 -12 -12 -31 -12 -42 0 -11 -9 -25 -20 -31 -21 -11 -25 -35 -14 -89 7 -31 28 -42 38 -18 3 8 9 6 17 -8 7 -11 25 -33 41 -48 20 -20 28 -39 28 -64 0 -25 8 -43 29 -64 25 -24 38 -29 79 -29 45 0 53 4 81 35 20 23 31 46 31 66 0 26 3 30 18 24 32 -14 80 -17 87 -5 4 6 -1 20 -10 30 -14 16 -15 23 -5 53 7 18 22 38 34 43 18 8 21 18 21 68 0 48 -4 61 -20 70 -11 6 -22 13 -25 14 -3 2 -5 25 -5 50 l0 47 -187 2 c-103 1 -190 -2 -193 -7z m65 -17 c-8 -3 -21 -10 -27 -16 -9 -7 -13 -5 -13 7 0 11 8 16 28 15 15 0 21 -3 12 -6z m285 -2 c9 -16 -9 -18 -35 -5 l-25 14 27 0 c15 0 29 -4 33 -9z m-152 -8 c-53 -5 -56 -18 -5 -26 20 -3 52 -9 70 -13 28 -6 32 -4 26 11 -7 17 -6 17 24 0 17 -10 36 -29 44 -43 7 -13 23 -28 36 -33 20 -8 23 -15 20 -46 -2 -30 -7 -39 -25 -41 -15 -2 -26 -14 -33 -37 -6 -19 -16 -35 -23 -38 -9 -3 -9 -10 0 -30 12 -26 12 -26 -14 -16 -14 5 -28 7 -31 4 -11 -10 -30 17 -25 35 6 24 -13 26 -41 5 -11 -8 -36 -15 -56 -15 -20 0 -45 7 -56 15 -24 18 -44 19 -44 1 0 -8 6 -16 13 -19 6 -2 9 -8 5 -12 -4 -4 -21 7 -38 25 -22 23 -28 36 -20 44 16 16 12 38 -11 62 -18 19 -19 27 -10 61 19 71 90 113 186 111 50 -1 50 -2 8 -5z m-193 -204 c0 -5 -7 -9 -15 -9 -15 0 -20 12 -9 23 8 8 24 -1 24 -14z"/>
 <path d="M350 265 c-18 -22 -1 -50 31 -50 20 0 24 5 24 30 0 23 -5 31 -21 33 -11 2 -27 -4 -34 -13z"/>
 </g>
<g id="layer102" fill="#ffd203" stroke="none">
 <path d="M287 164 c-3 -4 1 -17 9 -29 31 -47 -17 -115 -71 -101 -14 4 -32 18 -42 32 -14 22 -15 31 -5 57 14 37 6 50 -14 23 -38 -53 4 -126 74 -126 52 0 82 32 82 87 0 38 -19 71 -33 57z"/>
 <path d="M191 131 c-16 -29 -14 -46 8 -65 29 -26 73 -17 85 17 14 39 -2 61 -47 65 -27 2 -38 -2 -46 -17z"/>
 </g>

</svg>