<!DOCTYPE svg PUBLIC "-//W3C//DTD SVG 20010904//EN" "http://www.w3.org/TR/2001/REC-SVG-20010904/DTD/svg10.dtd">
<svg version="1.0" xmlns="http://www.w3.org/2000/svg" width="50px" height="50px" viewBox="0 0 500 500" preserveAspectRatio="xMidYMid meet">
<g id="layer101" fill="#292929" stroke="none">
 <path d="M163 483 c-4 -9 -1 -41 5 -71 l12 -55 -53 -108 -52 -108 -37 0 c-27 -1 -38 -5 -38 -16 0 -11 11 -15 40 -15 35 0 43 4 58 30 9 16 22 30 27 30 6 0 25 -23 43 -51 37 -56 87 -84 133 -75 17 3 32 0 39 -10 9 -10 16 -11 25 -4 8 7 17 4 30 -10 18 -20 45 -27 45 -12 0 5 -9 17 -20 27 -12 10 -18 25 -15 33 3 8 1 20 -4 26 -16 19 26 76 55 76 15 0 24 6 24 15 0 8 -6 15 -14 15 -8 0 -26 32 -43 73 -17 42 -34 71 -42 69 -7 -1 -10 2 -7 7 4 5 22 7 42 4 48 -8 84 25 84 77 0 46 -25 70 -72 70 -57 0 -103 -71 -68 -106 7 -7 4 -16 -8 -27 -18 -17 -21 -14 -71 58 -45 65 -56 75 -82 75 -18 0 -32 -6 -36 -17z m96 -70 c27 -38 49 -68 48 -69 -1 0 -23 1 -49 4 l-47 4 -16 54 c-15 53 -14 74 5 74 5 0 32 -30 59 -67z m131 -263 c-8 -15 -21 -20 -51 -20 -40 0 -41 -1 -37 -30 4 -26 2 -30 -19 -30 -35 0 -57 14 -93 60 l-32 40 122 0 c118 0 120 -1 110 -20z m-26 -59 c14 -15 14 -19 3 -24 -17 -6 -37 11 -37 30 0 18 14 16 34 -6z"/>
 </g>
<g id="layer102" fill="#ffd203" stroke="none">
 <path d="M390 470 c-21 -21 -24 -37 -14 -64 9 -22 24 -10 24 20 0 30 26 42 47 21 20 -20 11 -44 -18 -49 -33 -4 -36 -28 -5 -28 29 0 66 31 66 55 0 9 -11 27 -25 40 -29 30 -49 31 -75 5z"/>
 <path d="M416 442 c-3 -6 1 -15 8 -21 8 -7 17 -8 20 -3 3 6 -1 15 -8 21 -8 7 -17 8 -20 3z"/>
 <path d="M157 265 c-15 -31 -27 -60 -27 -65 0 -6 59 -10 151 -10 l150 0 -7 23 c-4 12 -15 41 -25 65 l-18 42 -99 0 -98 0 -27 -55z m191 -52 c-26 -2 -71 -2 -100 0 -29 2 -8 3 47 3 55 0 79 -1 53 -3z"/>
 </g>

</svg>